<mxfile host="app.diagrams.net" agent="Mozilla/5.0 (Macintosh; Intel Mac OS X 10_15_7) AppleWebKit/537.36 (KHTML, like Gecko) Chrome/139.0.0.0 Safari/537.36" version="28.2.0">
  <diagram name="Page-1" id="FGPFNt6KQWO42Vt0kfac">
    <mxGraphModel dx="2148" dy="2263" grid="1" gridSize="10" guides="1" tooltips="1" connect="1" arrows="1" fold="1" page="1" pageScale="1" pageWidth="850" pageHeight="1100" math="0" shadow="0">
      <root>
        <mxCell id="0" />
        <mxCell id="1" parent="0" />
        <mxCell id="ykzy3dTY6acKnWCfOAII-3" value="&lt;p style=&quot;margin:0px;margin-top:6px;text-align:center;&quot;&gt;&lt;b&gt;&lt;font&gt;Simulation-Engines&lt;/font&gt;&lt;/b&gt;&lt;/p&gt;&lt;hr style=&quot;border-style:solid;&quot;&gt;&lt;p style=&quot;margin:0px;margin-left:8px;&quot;&gt;&lt;br&gt;&lt;/p&gt;" style="align=left;overflow=fill;html=1;dropTarget=0;whiteSpace=wrap;fillColor=#fad7ac;strokeColor=#b46504;fontSize=22;" parent="1" vertex="1">
          <mxGeometry x="-115" y="520" width="480" height="310" as="geometry" />
        </mxCell>
        <mxCell id="ykzy3dTY6acKnWCfOAII-4" value="" style="shape=component;jettyWidth=8;jettyHeight=4;fontSize=22;" parent="ykzy3dTY6acKnWCfOAII-3" vertex="1">
          <mxGeometry x="1" width="20" height="20" relative="1" as="geometry">
            <mxPoint x="-24" y="4" as="offset" />
          </mxGeometry>
        </mxCell>
        <mxCell id="ykzy3dTY6acKnWCfOAII-5" value="&lt;p style=&quot;margin:0px;margin-top:6px;text-align:center;&quot;&gt;&lt;b&gt;&lt;font&gt;BProgam&lt;/font&gt;&lt;/b&gt;&lt;/p&gt;" style="align=left;overflow=fill;html=1;dropTarget=0;whiteSpace=wrap;fontSize=22;" parent="1" vertex="1">
          <mxGeometry x="-20" y="-20" width="520" height="460" as="geometry" />
        </mxCell>
        <mxCell id="ykzy3dTY6acKnWCfOAII-6" value="" style="shape=component;jettyWidth=8;jettyHeight=4;fontSize=22;" parent="ykzy3dTY6acKnWCfOAII-5" vertex="1">
          <mxGeometry x="1" width="20" height="20" relative="1" as="geometry">
            <mxPoint x="-24" y="4" as="offset" />
          </mxGeometry>
        </mxCell>
        <mxCell id="ykzy3dTY6acKnWCfOAII-7" value="&lt;p style=&quot;margin:0px;margin-top:6px;text-align:center;&quot;&gt;&lt;b&gt;&lt;font&gt;Visualisierung&lt;/font&gt;&lt;/b&gt;&lt;/p&gt;&lt;hr style=&quot;border-style:solid;&quot;&gt;&lt;p style=&quot;margin:0px;margin-left:8px;&quot;&gt;&lt;br&gt;&lt;/p&gt;" style="align=left;overflow=fill;html=1;dropTarget=0;whiteSpace=wrap;fillColor=#b1ddf0;strokeColor=#10739e;fontSize=22;" parent="1" vertex="1">
          <mxGeometry x="570" y="-20" width="360" height="230" as="geometry" />
        </mxCell>
        <mxCell id="ykzy3dTY6acKnWCfOAII-8" value="" style="shape=component;jettyWidth=8;jettyHeight=4;fontSize=22;" parent="ykzy3dTY6acKnWCfOAII-7" vertex="1">
          <mxGeometry x="1" width="20" height="20" relative="1" as="geometry">
            <mxPoint x="-24" y="4" as="offset" />
          </mxGeometry>
        </mxCell>
        <mxCell id="ykzy3dTY6acKnWCfOAII-38" style="edgeStyle=orthogonalEdgeStyle;rounded=0;orthogonalLoop=1;jettySize=auto;html=1;exitX=0.5;exitY=0;exitDx=0;exitDy=0;entryX=0;entryY=0.5;entryDx=0;entryDy=0;fontSize=22;" parent="1" source="ykzy3dTY6acKnWCfOAII-9" target="ykzy3dTY6acKnWCfOAII-10" edge="1">
          <mxGeometry relative="1" as="geometry" />
        </mxCell>
        <mxCell id="ykzy3dTY6acKnWCfOAII-39" value="erzeugt" style="edgeLabel;html=1;align=center;verticalAlign=middle;resizable=0;points=[];fontColor=default;labelBackgroundColor=none;fontSize=18;" parent="ykzy3dTY6acKnWCfOAII-38" vertex="1" connectable="0">
          <mxGeometry x="0.3469" y="6" relative="1" as="geometry">
            <mxPoint x="-16" y="-5" as="offset" />
          </mxGeometry>
        </mxCell>
        <mxCell id="ykzy3dTY6acKnWCfOAII-9" value="&lt;font&gt;Logger&lt;/font&gt;" style="html=1;whiteSpace=wrap;fontSize=22;" parent="1" vertex="1">
          <mxGeometry x="585" y="94" width="110" height="50" as="geometry" />
        </mxCell>
        <mxCell id="ykzy3dTY6acKnWCfOAII-10" value="&lt;font&gt;Log&lt;/font&gt;" style="html=1;whiteSpace=wrap;fontSize=22;" parent="1" vertex="1">
          <mxGeometry x="695" y="34" width="110" height="50" as="geometry" />
        </mxCell>
        <mxCell id="ykzy3dTY6acKnWCfOAII-40" style="edgeStyle=orthogonalEdgeStyle;rounded=0;orthogonalLoop=1;jettySize=auto;html=1;exitX=0.5;exitY=0;exitDx=0;exitDy=0;entryX=1;entryY=0.5;entryDx=0;entryDy=0;fontSize=22;" parent="1" source="ykzy3dTY6acKnWCfOAII-11" target="ykzy3dTY6acKnWCfOAII-10" edge="1">
          <mxGeometry relative="1" as="geometry" />
        </mxCell>
        <mxCell id="ykzy3dTY6acKnWCfOAII-41" value="visualisiert" style="edgeLabel;html=1;align=center;verticalAlign=middle;resizable=0;points=[];labelBackgroundColor=none;fontSize=18;" parent="ykzy3dTY6acKnWCfOAII-40" vertex="1" connectable="0">
          <mxGeometry x="-0.0341" relative="1" as="geometry">
            <mxPoint x="9" y="-11" as="offset" />
          </mxGeometry>
        </mxCell>
        <mxCell id="ykzy3dTY6acKnWCfOAII-11" value="&lt;font&gt;UI&lt;/font&gt;" style="html=1;whiteSpace=wrap;fontSize=22;" parent="1" vertex="1">
          <mxGeometry x="805" y="94" width="110" height="50" as="geometry" />
        </mxCell>
        <mxCell id="ykzy3dTY6acKnWCfOAII-20" value="" style="html=1;whiteSpace=wrap;fillColor=none;fontSize=22;" parent="1" vertex="1">
          <mxGeometry x="10" y="20" width="470" height="170" as="geometry" />
        </mxCell>
        <mxCell id="ykzy3dTY6acKnWCfOAII-48" value="" style="html=1;whiteSpace=wrap;fillColor=none;fontSize=22;" parent="1" vertex="1">
          <mxGeometry x="290" y="30" width="183" height="140" as="geometry" />
        </mxCell>
        <mxCell id="ykzy3dTY6acKnWCfOAII-16" value="" style="html=1;whiteSpace=wrap;fontSize=22;" parent="1" vertex="1">
          <mxGeometry x="324" y="60" width="110" height="50" as="geometry" />
        </mxCell>
        <mxCell id="ykzy3dTY6acKnWCfOAII-17" value="" style="html=1;whiteSpace=wrap;fontSize=22;" parent="1" vertex="1">
          <mxGeometry x="316" y="75" width="110" height="50" as="geometry" />
        </mxCell>
        <mxCell id="ykzy3dTY6acKnWCfOAII-18" value="&lt;font&gt;konkretes Szenario&lt;/font&gt;" style="html=1;whiteSpace=wrap;fontSize=22;" parent="1" vertex="1">
          <mxGeometry x="306" y="95" width="110" height="50" as="geometry" />
        </mxCell>
        <mxCell id="ykzy3dTY6acKnWCfOAII-21" value="" style="sketch=0;outlineConnect=0;fontColor=#232F3E;gradientColor=none;fillColor=#232F3D;strokeColor=none;dashed=0;verticalLabelPosition=bottom;verticalAlign=top;align=center;html=1;fontSize=22;fontStyle=0;aspect=fixed;pointerEvents=1;shape=mxgraph.aws4.user;" parent="1" vertex="1">
          <mxGeometry x="443" y="34" width="26" height="26" as="geometry" />
        </mxCell>
        <mxCell id="ykzy3dTY6acKnWCfOAII-22" value="&lt;font&gt;RL-Agent&lt;/font&gt;" style="html=1;whiteSpace=wrap;fillColor=#d0cee2;strokeColor=#56517e;fontSize=22;" parent="1" vertex="1">
          <mxGeometry x="32.5" y="30" width="185" height="140" as="geometry" />
        </mxCell>
        <mxCell id="ykzy3dTY6acKnWCfOAII-24" value="" style="sketch=0;outlineConnect=0;fontColor=#232F3E;gradientColor=none;fillColor=#232F3D;strokeColor=none;dashed=0;verticalLabelPosition=bottom;verticalAlign=top;align=center;html=1;fontSize=22;fontStyle=0;aspect=fixed;pointerEvents=1;shape=mxgraph.aws4.gear;" parent="1" vertex="1">
          <mxGeometry x="180" y="34" width="28" height="28" as="geometry" />
        </mxCell>
        <mxCell id="ykzy3dTY6acKnWCfOAII-25" value="" style="html=1;whiteSpace=wrap;fontSize=22;" parent="1" vertex="1">
          <mxGeometry x="-105" y="585" width="210" height="230" as="geometry" />
        </mxCell>
        <mxCell id="ykzy3dTY6acKnWCfOAII-26" value="" style="html=1;whiteSpace=wrap;fontSize=22;" parent="1" vertex="1">
          <mxGeometry x="155" y="585" width="200" height="230" as="geometry" />
        </mxCell>
        <mxCell id="ykzy3dTY6acKnWCfOAII-27" value="&lt;span&gt;&lt;font&gt;HighwayEnv&lt;/font&gt;&lt;/span&gt;" style="html=1;whiteSpace=wrap;fontSize=22;fontStyle=0" parent="1" vertex="1">
          <mxGeometry x="-65" y="595" width="130" height="50" as="geometry" />
        </mxCell>
        <mxCell id="ykzy3dTY6acKnWCfOAII-28" value="&lt;font&gt;SumoEnv&lt;/font&gt;" style="html=1;whiteSpace=wrap;fontSize=22;" parent="1" vertex="1">
          <mxGeometry x="180" y="595" width="150" height="50" as="geometry" />
        </mxCell>
        <mxCell id="ykzy3dTY6acKnWCfOAII-29" value="&lt;span&gt;&lt;font&gt;SumoVehicle&lt;/font&gt;&lt;/span&gt;" style="html=1;whiteSpace=wrap;fontSize=22;fontStyle=0" parent="1" vertex="1">
          <mxGeometry x="180" y="655" width="150" height="50" as="geometry" />
        </mxCell>
        <mxCell id="86ZKdSMgpe2AlOHYf0pM-18" value="" style="html=1;whiteSpace=wrap;fillColor=#fad9d5;strokeColor=#ae4132;" vertex="1" parent="1">
          <mxGeometry x="20" y="200" width="260" height="178.5" as="geometry" />
        </mxCell>
        <mxCell id="ykzy3dTY6acKnWCfOAII-30" value="&lt;font&gt;&lt;span&gt;SumoControllable&lt;/span&gt;&lt;/font&gt;&lt;div&gt;&lt;font&gt;&lt;span&gt;Vehicle&lt;/span&gt;&lt;/font&gt;&lt;/div&gt;" style="html=1;whiteSpace=wrap;fontSize=22;fontStyle=0" parent="1" vertex="1">
          <mxGeometry x="165" y="745" width="180" height="50" as="geometry" />
        </mxCell>
        <mxCell id="ykzy3dTY6acKnWCfOAII-33" value="" style="endArrow=block;endSize=16;endFill=0;html=1;rounded=0;entryX=0.5;entryY=1;entryDx=0;entryDy=0;fontSize=22;exitX=0.5;exitY=0;exitDx=0;exitDy=0;" parent="1" source="ykzy3dTY6acKnWCfOAII-30" target="ykzy3dTY6acKnWCfOAII-29" edge="1">
          <mxGeometry width="160" relative="1" as="geometry">
            <mxPoint x="250" y="740" as="sourcePoint" />
            <mxPoint x="305" y="645" as="targetPoint" />
          </mxGeometry>
        </mxCell>
        <mxCell id="86ZKdSMgpe2AlOHYf0pM-17" style="edgeStyle=orthogonalEdgeStyle;rounded=0;orthogonalLoop=1;jettySize=auto;html=1;exitX=0;exitY=0.5;exitDx=0;exitDy=0;entryX=0;entryY=0.5;entryDx=0;entryDy=0;endArrow=block;endFill=0;dashed=1;" edge="1" parent="1" source="ykzy3dTY6acKnWCfOAII-35" target="86ZKdSMgpe2AlOHYf0pM-15">
          <mxGeometry relative="1" as="geometry">
            <Array as="points">
              <mxPoint x="-150" y="680" />
              <mxPoint x="-150" y="335" />
            </Array>
          </mxGeometry>
        </mxCell>
        <mxCell id="ykzy3dTY6acKnWCfOAII-35" value="&lt;span&gt;&lt;font&gt;Vehicle&lt;/font&gt;&lt;/span&gt;" style="html=1;whiteSpace=wrap;fontSize=22;fontStyle=0" parent="1" vertex="1">
          <mxGeometry x="-65" y="655" width="130" height="50" as="geometry" />
        </mxCell>
        <mxCell id="ykzy3dTY6acKnWCfOAII-36" value="&lt;span&gt;&lt;font&gt;ControllableVehicle&lt;/font&gt;&lt;/span&gt;" style="html=1;whiteSpace=wrap;fontSize=22;fontStyle=0" parent="1" vertex="1">
          <mxGeometry x="-95" y="745" width="190" height="50" as="geometry" />
        </mxCell>
        <mxCell id="ykzy3dTY6acKnWCfOAII-37" value="" style="endArrow=block;endSize=16;endFill=0;html=1;rounded=0;exitX=0.5;exitY=0;exitDx=0;exitDy=0;entryX=0.5;entryY=1;entryDx=0;entryDy=0;fontSize=22;" parent="1" source="ykzy3dTY6acKnWCfOAII-36" target="ykzy3dTY6acKnWCfOAII-35" edge="1">
          <mxGeometry width="160" relative="1" as="geometry">
            <mxPoint x="-117.5" y="645" as="sourcePoint" />
            <mxPoint x="42.5" y="645" as="targetPoint" />
          </mxGeometry>
        </mxCell>
        <mxCell id="ykzy3dTY6acKnWCfOAII-46" value="" style="ellipse;whiteSpace=wrap;html=1;align=center;aspect=fixed;fillColor=none;strokeColor=none;resizable=0;perimeter=centerPerimeter;rotatable=0;allowArrows=0;points=[];outlineConnect=1;fontSize=22;" parent="1" vertex="1">
          <mxGeometry x="255" y="300" width="10" height="10" as="geometry" />
        </mxCell>
        <mxCell id="ykzy3dTY6acKnWCfOAII-55" value="" style="ellipse;whiteSpace=wrap;html=1;align=center;aspect=fixed;fillColor=none;strokeColor=none;resizable=0;perimeter=centerPerimeter;rotatable=0;allowArrows=0;points=[];outlineConnect=1;fontSize=22;" parent="1" vertex="1">
          <mxGeometry x="525" y="200" width="10" height="10" as="geometry" />
        </mxCell>
        <mxCell id="ykzy3dTY6acKnWCfOAII-59" value="" style="ellipse;whiteSpace=wrap;html=1;align=center;aspect=fixed;fillColor=none;strokeColor=none;resizable=0;perimeter=centerPerimeter;rotatable=0;allowArrows=0;points=[];outlineConnect=1;fontSize=22;" parent="1" vertex="1">
          <mxGeometry x="570" y="180" width="10" height="10" as="geometry" />
        </mxCell>
        <mxCell id="ykzy3dTY6acKnWCfOAII-72" value="OR" style="verticalLabelPosition=bottom;verticalAlign=top;html=1;shape=mxgraph.flowchart.summing_function;fontSize=22;" parent="1" vertex="1">
          <mxGeometry x="235" y="90" width="30" height="30" as="geometry" />
        </mxCell>
        <mxCell id="ykzy3dTY6acKnWCfOAII-73" value="OR" style="verticalLabelPosition=bottom;verticalAlign=top;html=1;shape=mxgraph.flowchart.summing_function;fontSize=22;" parent="1" vertex="1">
          <mxGeometry x="115" y="680" width="30" height="30" as="geometry" />
        </mxCell>
        <mxCell id="14d9Y7G-UBgUWVnmv6gt-1" value="" style="endArrow=none;html=1;rounded=0;fontSize=22;strokeWidth=2;" parent="1" edge="1">
          <mxGeometry width="50" height="50" relative="1" as="geometry">
            <mxPoint x="-20" y="13" as="sourcePoint" />
            <mxPoint x="500" y="14" as="targetPoint" />
          </mxGeometry>
        </mxCell>
        <mxCell id="14d9Y7G-UBgUWVnmv6gt-5" value="&lt;font style=&quot;font-size: 16px;&quot;&gt;Menge an B-Threads, welche neben einem konkreten Szenario ausgeführt wird und dieses auf Erfülltheit prüft.&lt;br&gt;&lt;br&gt;Bei der Ausführung des RL-Agentes liefern diese B-Threads die Rewards zum Erlernen des abstrakten Szenarios.&lt;/font&gt;" style="shape=note2;boundedLbl=1;whiteSpace=wrap;html=1;size=25;verticalAlign=top;align=left;" parent="1" vertex="1">
          <mxGeometry x="525" y="250" width="381" height="180" as="geometry" />
        </mxCell>
        <mxCell id="14d9Y7G-UBgUWVnmv6gt-6" value="" style="endArrow=none;dashed=1;html=1;dashPattern=1 3;strokeWidth=2;rounded=0;exitX=0;exitY=0.5;exitDx=0;exitDy=0;exitPerimeter=0;entryX=0.5;entryY=1;entryDx=0;entryDy=0;" parent="1" source="14d9Y7G-UBgUWVnmv6gt-5" target="86ZKdSMgpe2AlOHYf0pM-3" edge="1">
          <mxGeometry width="50" height="50" relative="1" as="geometry">
            <mxPoint x="500" y="550" as="sourcePoint" />
            <mxPoint x="379" y="309.9999999999998" as="targetPoint" />
          </mxGeometry>
        </mxCell>
        <mxCell id="86ZKdSMgpe2AlOHYf0pM-1" value="" style="html=1;whiteSpace=wrap;fontSize=22;" vertex="1" parent="1">
          <mxGeometry x="333" y="210" width="110" height="50" as="geometry" />
        </mxCell>
        <mxCell id="86ZKdSMgpe2AlOHYf0pM-2" value="" style="html=1;whiteSpace=wrap;fontSize=22;" vertex="1" parent="1">
          <mxGeometry x="325" y="225" width="110" height="50" as="geometry" />
        </mxCell>
        <mxCell id="86ZKdSMgpe2AlOHYf0pM-3" value="&lt;font&gt;abstraktes Szenario&lt;/font&gt;" style="html=1;whiteSpace=wrap;fontSize=22;" vertex="1" parent="1">
          <mxGeometry x="315" y="245" width="110" height="50" as="geometry" />
        </mxCell>
        <mxCell id="86ZKdSMgpe2AlOHYf0pM-4" value="" style="endArrow=classic;html=1;rounded=0;exitX=1.004;exitY=0.632;exitDx=0;exitDy=0;entryX=0;entryY=0.5;entryDx=0;entryDy=0;exitPerimeter=0;dashed=1;" edge="1" parent="1" source="ykzy3dTY6acKnWCfOAII-48" target="ykzy3dTY6acKnWCfOAII-9">
          <mxGeometry width="50" height="50" relative="1" as="geometry">
            <mxPoint x="560" y="290" as="sourcePoint" />
            <mxPoint x="610" y="240" as="targetPoint" />
          </mxGeometry>
        </mxCell>
        <mxCell id="86ZKdSMgpe2AlOHYf0pM-5" value="nutzt" style="edgeLabel;html=1;align=center;verticalAlign=middle;resizable=0;points=[];fontSize=18;" vertex="1" connectable="0" parent="86ZKdSMgpe2AlOHYf0pM-4">
          <mxGeometry x="0.2359" relative="1" as="geometry">
            <mxPoint x="-13" y="-13" as="offset" />
          </mxGeometry>
        </mxCell>
        <mxCell id="86ZKdSMgpe2AlOHYf0pM-6" value="&lt;p style=&quot;margin:0px;margin-top:6px;text-align:center;&quot;&gt;&lt;b&gt;&lt;font&gt;Gymnasium&lt;/font&gt;&lt;/b&gt;&lt;/p&gt;&lt;hr style=&quot;border-style:solid;&quot;&gt;&lt;p style=&quot;margin:0px;margin-left:8px;&quot;&gt;&lt;br&gt;&lt;/p&gt;" style="align=left;overflow=fill;html=1;dropTarget=0;whiteSpace=wrap;fillColor=#d5e8d4;strokeColor=#82b366;fontSize=22;" vertex="1" parent="1">
          <mxGeometry x="-280" y="165" width="175" height="145" as="geometry" />
        </mxCell>
        <mxCell id="86ZKdSMgpe2AlOHYf0pM-7" value="" style="shape=component;jettyWidth=8;jettyHeight=4;fontSize=22;" vertex="1" parent="86ZKdSMgpe2AlOHYf0pM-6">
          <mxGeometry x="1" width="20" height="20" relative="1" as="geometry">
            <mxPoint x="-24" y="4" as="offset" />
          </mxGeometry>
        </mxCell>
        <mxCell id="86ZKdSMgpe2AlOHYf0pM-12" value="«abstract»&lt;br&gt;&lt;b&gt;Env&lt;/b&gt;" style="html=1;whiteSpace=wrap;fontSize=20;" vertex="1" parent="1">
          <mxGeometry x="-250" y="230.5" width="110" height="50" as="geometry" />
        </mxCell>
        <mxCell id="86ZKdSMgpe2AlOHYf0pM-15" value="«interface»&lt;br&gt;&lt;b&gt;Vehicle&lt;/b&gt;" style="html=1;whiteSpace=wrap;fontSize=20;" vertex="1" parent="1">
          <mxGeometry x="87.5" y="310" width="130" height="51" as="geometry" />
        </mxCell>
        <mxCell id="86ZKdSMgpe2AlOHYf0pM-19" style="edgeStyle=orthogonalEdgeStyle;rounded=0;orthogonalLoop=1;jettySize=auto;html=1;exitX=0;exitY=0.5;exitDx=0;exitDy=0;entryX=1;entryY=0.5;entryDx=0;entryDy=0;endArrow=block;endFill=0;" edge="1" parent="1" source="ykzy3dTY6acKnWCfOAII-12" target="86ZKdSMgpe2AlOHYf0pM-12">
          <mxGeometry relative="1" as="geometry" />
        </mxCell>
        <mxCell id="ykzy3dTY6acKnWCfOAII-12" value="&lt;span style=&quot;font-size: 20px;&quot;&gt;«abstract»&lt;/span&gt;&lt;br style=&quot;font-size: 20px;&quot;&gt;&lt;div&gt;&lt;span style=&quot;background-color: transparent; color: light-dark(rgb(0, 0, 0), rgb(255, 255, 255));&quot;&gt;Driving&lt;/span&gt;&lt;span style=&quot;background-color: transparent; color: light-dark(rgb(0, 0, 0), rgb(255, 255, 255));&quot;&gt;Engine&lt;/span&gt;&lt;/div&gt;" style="html=1;whiteSpace=wrap;fontSize=22;" parent="1" vertex="1">
          <mxGeometry x="60" y="211.5" width="180" height="88.5" as="geometry" />
        </mxCell>
        <mxCell id="86ZKdSMgpe2AlOHYf0pM-16" style="edgeStyle=orthogonalEdgeStyle;rounded=0;orthogonalLoop=1;jettySize=auto;html=1;exitX=1;exitY=0.5;exitDx=0;exitDy=0;entryX=1;entryY=0.5;entryDx=0;entryDy=0;endArrow=block;endFill=0;dashed=1;" edge="1" parent="1" source="ykzy3dTY6acKnWCfOAII-29" target="86ZKdSMgpe2AlOHYf0pM-15">
          <mxGeometry relative="1" as="geometry">
            <Array as="points">
              <mxPoint x="400" y="680" />
              <mxPoint x="400" y="335" />
            </Array>
          </mxGeometry>
        </mxCell>
        <mxCell id="86ZKdSMgpe2AlOHYf0pM-20" style="edgeStyle=orthogonalEdgeStyle;rounded=0;orthogonalLoop=1;jettySize=auto;html=1;exitX=1;exitY=0.5;exitDx=0;exitDy=0;entryX=1;entryY=0.75;entryDx=0;entryDy=0;endArrow=block;endFill=0;" edge="1" parent="1" source="ykzy3dTY6acKnWCfOAII-28" target="ykzy3dTY6acKnWCfOAII-12">
          <mxGeometry relative="1" as="geometry">
            <Array as="points">
              <mxPoint x="380" y="620" />
              <mxPoint x="380" y="410" />
              <mxPoint x="270" y="410" />
              <mxPoint x="270" y="278" />
            </Array>
          </mxGeometry>
        </mxCell>
        <mxCell id="86ZKdSMgpe2AlOHYf0pM-21" style="edgeStyle=orthogonalEdgeStyle;rounded=0;orthogonalLoop=1;jettySize=auto;html=1;exitX=0;exitY=0.5;exitDx=0;exitDy=0;entryX=0;entryY=0.75;entryDx=0;entryDy=0;endArrow=block;endFill=0;" edge="1" parent="1" source="ykzy3dTY6acKnWCfOAII-27" target="ykzy3dTY6acKnWCfOAII-12">
          <mxGeometry relative="1" as="geometry">
            <Array as="points">
              <mxPoint x="-130" y="620" />
              <mxPoint x="-130" y="410" />
              <mxPoint x="40" y="410" />
              <mxPoint x="40" y="278" />
            </Array>
          </mxGeometry>
        </mxCell>
      </root>
    </mxGraphModel>
  </diagram>
</mxfile>
